<svg xlink="http://www.w3.org/1999/xlink" viewBox="0 0 5000 5000" xmlns="http://www.w3.org/2000/svg" style="transform: scale(1);"><defs><filter id="goo"><feGaussianBlur in="SourceGraphic" stdDeviation="0" result="blur"></feGaussianBlur><feColorMatrix in="blur" type="matrix" values="1 0 0 0 0 0 1 0 0 0 0 0 1 0 0 0 0 0 19 -9" result="good"></feColorMatrix><feComposite in="SourceGraphic" in2="goo" operator="atop"></feComposite></filter><path d="M246,282C242,282 238,280 233,277L248,218Q287,219 281,256Q278,289 246,282z" id="P0"></path><path d="M269,243L257,269L231,255L246,230L269,243z" id="P1"></path><path d="M224,228C226,225 230,222 236,219Q283,211 283,256Q287,285 261,282Q207,277 224,228z" id="P2"></path><path d="M234,259L239,235L242,234L266,259L234,259z" id="P3"></path><path d="M262,267L230,256C229,253 228,249 229,246C241,243 246,239 254,229C260,243 262,251 262,267z" id="P4"></path><path d="M249,263L239,244L261,243L263,248L249,263z" id="P5"></path></defs><rect id="RECT" width="5000" height="5000" fill="#111"></rect><g id="group" fill="#000000" filter="" opacity="0.1"><use x="-251" y="340" href="#P0"></use><use x="231" y="1057" href="#P3"></use><use x="288" y="1145" href="#P5"></use><use x="181" y="2548" href="#P1"></use><use x="417" y="2651" href="#P3"></use><use x="159" y="3421" href="#P5"></use><use x="-47" y="4650" href="#P1"></use><use x="-251" y="4816" href="#P5"></use><use x="1296" y="81" href="#P4"></use><use x="1101" y="713" href="#P4"></use><use x="482" y="1623" href="#P2"></use><use x="1166" y="2062" href="#P4"></use><use x="835" y="3276" href="#P3"></use><use x="1191" y="3815" href="#P3"></use><use x="597" y="4691" href="#P0"></use><use x="1319" y="5146" href="#P4"></use><use x="1435" y="197" href="#P0"></use><use x="1444" y="642" href="#P5"></use><use x="1457" y="1701" href="#P1"></use><use x="1443" y="2164" href="#P3"></use><use x="2040" y="3064" href="#P4"></use><use x="1449" y="3871" href="#P5"></use><use x="2057" y="4173" href="#P4"></use><use x="1416" y="5047" href="#P0"></use><use x="2201" y="342" href="#P4"></use><use x="2111" y="767" href="#P5"></use><use x="2229" y="1127" href="#P0"></use><use x="2468" y="2424" href="#P4"></use><use x="2465" y="2682" href="#P1"></use><use x="2600" y="3670" href="#P1"></use><use x="2621" y="4705" href="#P1"></use><use x="2236" y="4910" href="#P3"></use><use x="3119" y="32" href="#P2"></use><use x="3647" y="1146" href="#P0"></use><use x="3458" y="1709" href="#P4"></use><use x="3082" y="2061" href="#P1"></use><use x="3304" y="2662" href="#P2"></use><use x="3036" y="3651" href="#P1"></use><use x="3689" y="4366" href="#P0"></use><use x="3083" y="5229" href="#P5"></use><use x="3831" y="-50" href="#P5"></use><use x="4087" y="992" href="#P3"></use><use x="4429" y="1369" href="#P4"></use><use x="4252" y="2064" href="#P2"></use><use x="4449" y="2697" href="#P4"></use><use x="4053" y="4031" href="#P4"></use><use x="3706" y="4548" href="#P1"></use><use x="4194" y="5451" href="#P5"></use><use x="4591" y="-120" href="#P2"></use><use x="4721" y="620" href="#P3"></use><use x="4947" y="1609" href="#P4"></use><use x="4662" y="1975" href="#P0"></use><use x="4878" y="2839" href="#P5"></use><use x="4766" y="3757" href="#P3"></use><use x="4486" y="4501" href="#P3"></use><use x="4835" y="5197" href="#P0"></use></g></svg>