<?xml version="1.0" standalone="no"?>
<!DOCTYPE svg PUBLIC "-//W3C//DTD SVG 20010904//EN"
 "http://www.w3.org/TR/2001/REC-SVG-20010904/DTD/svg10.dtd">
<svg version="1.0" xmlns="http://www.w3.org/2000/svg"
 width="5000.000000pt" height="5000.000000pt" viewBox="0 0 5000.000000 5000.000000"
 preserveAspectRatio="xMidYMid meet">
<metadata>
Created by potrace 1.16, written by Peter Selinger 2001-2019
</metadata>
<g transform="translate(0.000000,5000.000000) scale(0.100000,-0.100000)"
fill="#000000" stroke="none">
<path d="M19003 37212 c-47 -19 -98 -64 -118 -103 -8 -15 -87 -276 -175 -580
-89 -305 -263 -903 -387 -1329 -123 -426 -299 -1027 -390 -1335 -90 -308 -214
-729 -275 -935 -104 -355 -373 -1254 -402 -1343 -8 -23 -29 -94 -49 -157 -44
-145 -88 -289 -172 -560 -37 -118 -73 -235 -81 -260 -210 -700 -1370 -4409
-1383 -4423 -5 -4 -32 5 -62 21 -30 16 -148 78 -264 137 -608 313 -1417 774
-2060 1174 -852 531 -1491 998 -1986 1452 -155 143 -196 166 -282 161 -42 -2
-107 -29 -107 -44 0 -5 -4 -7 -9 -4 -23 14 -94 -141 -82 -179 2 -5 5 -23 8
-40 7 -42 35 -85 93 -139 27 -25 46 -46 42 -46 -11 0 -58 -80 -54 -92 1 -6 -1
-15 -5 -22 -10 -13 -10 -45 1 -106 7 -41 20 -57 139 -174 680 -665 1555 -1310
2842 -2093 414 -252 1057 -621 1442 -829 40 -21 73 -42 73 -45 0 -3 -106 -345
-236 -760 -1332 -4262 -1776 -5994 -1865 -7274 -15 -215 -6 -657 16 -815 47
-341 147 -630 295 -853 28 -42 62 -107 75 -145 196 -567 643 -926 1313 -1056
450 -87 1048 -80 1777 20 593 82 1385 243 2225 452 151 38 276 69 277 68 1 -1
-5 -35 -12 -76 -8 -41 -59 -327 -115 -635 -130 -721 -376 -2042 -686 -3685
-53 -278 -108 -575 -124 -660 -16 -85 -56 -301 -90 -480 -33 -179 -72 -385
-85 -458 -14 -72 -36 -192 -49 -265 -14 -72 -51 -267 -83 -432 -67 -348 -72
-418 -31 -479 32 -46 89 -86 126 -88 15 -1 52 2 82 6 l55 8 2 -51 c4 -98 70
-173 166 -190 56 -10 63 -9 116 17 86 42 102 75 155 332 25 118 86 409 136
645 147 697 238 1145 695 3425 536 2675 664 3303 673 3310 4 4 70 23 147 44
602 164 2229 637 2905 846 69 21 179 55 245 75 66 20 161 49 210 65 50 16 160
50 245 75 85 26 189 58 230 71 196 62 1669 518 1730 536 19 5 229 68 465 139
237 72 462 139 500 151 39 11 90 26 115 34 71 21 1083 322 1410 419 162 48
466 138 675 200 209 63 592 177 850 254 979 291 1485 443 2190 657 99 30 295
89 435 130 299 89 338 104 380 150 54 60 72 165 36 220 -9 13 -13 24 -9 24 4
0 -9 16 -27 35 -25 26 -54 42 -103 57 -61 18 -67 22 -54 37 25 28 47 110 37
135 -5 13 -6 26 -3 30 6 5 -42 93 -63 114 -7 6 -17 12 -23 12 -5 0 -17 8 -27
18 -32 31 -147 22 -309 -25 -129 -37 -227 -65 -680 -188 -88 -24 -306 -85
-485 -134 -179 -50 -350 -97 -380 -105 -93 -25 -240 -65 -335 -92 -49 -14
-112 -31 -140 -38 -27 -8 -77 -22 -110 -31 -33 -9 -73 -21 -90 -25 -38 -11
-1135 -316 -1550 -432 -99 -27 -250 -69 -335 -93 -85 -24 -238 -67 -340 -95
-263 -73 -411 -115 -520 -144 -52 -15 -124 -35 -160 -46 -36 -10 -130 -37
-210 -59 -80 -22 -293 -81 -475 -131 -692 -193 -1197 -330 -1655 -450 -129
-34 -343 -90 -475 -125 -132 -35 -456 -121 -720 -190 -264 -69 -608 -160 -765
-201 -157 -41 -379 -100 -495 -131 -596 -158 -681 -181 -1450 -382 -313 -82
-571 -148 -572 -147 0 0 8 46 18 101 156 811 349 1867 434 2375 35 212 107
619 159 905 182 999 351 2014 590 3553 24 156 46 285 48 287 1 1 46 5 98 9
106 7 390 33 460 42 25 3 59 7 75 9 31 4 171 22 235 31 19 3 46 7 60 9 14 2
45 7 70 10 226 30 918 177 1130 239 25 8 90 26 145 41 346 93 815 253 1215
413 163 65 279 115 555 237 143 64 670 327 805 403 58 32 127 71 154 86 436
244 967 591 1391 910 1148 864 2028 1827 2679 2931 79 134 279 542 335 685
111 278 198 579 236 815 9 55 27 141 40 190 88 331 126 611 119 870 -8 310
-56 538 -166 796 -119 276 -286 497 -538 706 -511 424 -1291 643 -2295 643
-149 0 -342 -5 -430 -10 -385 -24 -709 -64 -1132 -141 -29 -5 -77 -13 -105
-18 -29 -5 -73 -14 -98 -19 -25 -6 -92 -20 -150 -32 -162 -34 -695 -167 -890
-222 -781 -221 -1620 -526 -2530 -920 -208 -90 -208 -90 -488 -218 -156 -71
-209 -91 -234 -88 -55 8 -114 -11 -156 -50 -21 -20 -43 -44 -48 -53 -5 -8
-205 -113 -444 -231 -623 -309 -1592 -821 -1677 -885 -18 -14 -46 -47 -64 -75
-28 -43 -32 -59 -32 -113 0 -85 32 -139 110 -190 32 -21 60 -40 63 -42 3 -3
-5 -12 -16 -21 -31 -25 -73 -92 -68 -107 3 -7 1 -16 -4 -19 -14 -8 -6 -97 12
-141 23 -54 78 -104 140 -126 92 -32 116 -23 496 176 318 167 1195 610 1260
638 l36 14 -12 -86 c-7 -47 -28 -192 -48 -321 -20 -129 -50 -323 -67 -430 -40
-262 -57 -373 -69 -447 -6 -35 -14 -91 -20 -125 -5 -35 -16 -106 -24 -158 -9
-52 -38 -241 -66 -420 -110 -707 -224 -1391 -415 -2490 -46 -267 -118 -685
-159 -930 -84 -495 -94 -551 -101 -559 -9 -9 -601 -9 -785 -1 -261 12 -337 18
-615 45 -870 86 -1803 307 -2649 627 -165 62 -564 226 -615 253 l-29 14 18 63
c10 35 200 700 423 1478 358 1250 498 1741 623 2190 20 69 56 197 80 285 25
88 56 199 70 248 13 48 35 126 49 175 13 48 70 251 125 452 55 201 112 403
125 450 13 47 49 177 80 290 32 113 95 340 142 505 46 165 127 453 179 640 52
187 106 378 119 425 101 354 598 2167 885 3230 47 172 74 291 77 340 5 69 3
78 -22 114 l-27 40 26 100 c48 185 27 279 -75 333 -62 32 -123 37 -176 15z
m9592 -4473 c277 -19 482 -49 710 -105 408 -101 699 -244 955 -468 235 -206
390 -504 442 -851 6 -44 12 -159 11 -255 l0 -175 -53 -150 c-212 -604 -598
-1222 -1148 -1840 -148 -166 -516 -539 -702 -710 -541 -499 -1221 -1013 -1860
-1407 -1165 -718 -2379 -1231 -3680 -1557 -177 -44 -735 -158 -860 -176 -25
-3 -83 -13 -130 -20 -47 -8 -101 -16 -120 -19 -77 -11 -268 -36 -319 -41 l-54
-7 6 44 c3 23 37 264 76 533 106 727 187 1316 321 2335 185 1407 259 2046 364
3138 7 79 18 147 22 152 5 4 59 31 119 58 61 27 135 61 165 75 352 160 823
356 1265 527 1002 386 2119 703 2895 820 391 59 668 89 970 103 123 7 485 4
605 -4z m-12413 -7875 c253 -127 586 -278 884 -403 1070 -445 2231 -713 3364
-776 52 -2 145 -8 205 -11 61 -3 112 -7 113 -9 2 -2 -30 -192 -72 -422 -245
-1353 -402 -2230 -506 -2828 -56 -319 -132 -740 -170 -935 -79 -406 -158 -833
-411 -2224 -98 -545 -179 -998 -179 -1008 0 -10 -10 -22 -23 -27 -62 -24
-1294 -316 -1562 -370 -22 -5 -107 -23 -190 -40 -682 -144 -1284 -243 -1735
-286 -91 -8 -187 -18 -215 -21 -96 -10 -561 -12 -670 -3 -413 34 -706 137
-891 314 -53 50 -53 50 -68 145 -31 189 -40 310 -39 555 1 704 168 1678 538
3155 240 956 495 1879 1102 3995 394 1377 365 1275 370 1275 2 0 72 -34 155
-76z"/>
<path d="M23080 27836 c-55 -16 -100 -40 -111 -58 -5 -7 -12 -13 -17 -13 -10
0 -62 -59 -62 -70 0 -5 -20 -32 -44 -61 -50 -61 -70 -124 -62 -201 6 -67 31
-108 103 -170 44 -37 58 -54 50 -62 -6 -6 -16 -11 -22 -11 -14 0 -85 -85 -85
-102 0 -8 -5 -19 -11 -25 -30 -30 -6 -197 35 -242 8 -9 24 -38 36 -65 46 -108
148 -191 249 -203 25 -3 53 -7 61 -8 43 -6 200 53 200 76 0 5 6 9 13 9 14 0
57 52 57 68 0 5 6 15 14 21 7 6 21 39 31 73 19 69 15 144 -10 206 -20 46 -94
142 -110 142 -6 0 -20 9 -29 19 -10 11 -31 23 -47 26 -31 7 -50 25 -26 25 21
0 137 87 144 108 3 9 12 24 19 32 25 30 46 131 41 194 -5 76 -22 116 -77 185
-76 95 -223 142 -340 107z"/>
<path d="M19785 27761 c-81 -21 -135 -70 -267 -241 -41 -53 -43 -57 -43 -130
0 -100 19 -137 102 -197 l64 -48 -28 -25 c-40 -35 -63 -64 -68 -86 -2 -11 -8
-32 -13 -49 -5 -16 -7 -41 -5 -55 9 -64 12 -77 25 -101 16 -30 95 -109 109
-109 5 0 30 -21 56 -47 26 -25 71 -57 100 -70 95 -44 240 -27 301 34 8 8 25
21 38 30 19 12 65 88 70 116 1 4 2 8 4 10 6 7 10 49 11 100 0 41 -7 73 -24
110 -25 55 -98 137 -121 137 -7 0 -19 7 -26 15 -7 8 -28 17 -47 21 l-34 6 31
20 c52 31 96 80 121 133 34 71 34 200 0 265 -39 75 -114 137 -191 158 -32 8
-136 11 -165 3z"/>
</g>
</svg>
